<svg width="120" height="120" viewBox="0 0 120 120" fill="none" xmlns="http://www.w3.org/2000/svg">
<path d="M57.715 0C57.715 0 57.665 0.705 57.45 1.135C57.29 1.51 56.86 1.775 56.915 2.045C56.965 2.315 57.235 2.64 57.665 2.855C58.095 3.07 58.25 3.225 58.68 3.335C59.055 3.44 59.6 3.715 59.705 3.39C59.87 3.07 59.655 2.635 59.385 2.26C58.955 1.56 58.735 1.4 58.145 0.435C58.035 0.22 57.93 0 57.715 0ZM61.105 0C60.995 0.055 60.835 0.87 60.565 1.565C60.245 2.37 60.455 2.745 60.615 3.065C60.83 3.39 61.105 3.605 60.565 3.93C60.03 4.25 59.325 4.145 59.325 4.145C59.325 4.145 58.735 4.03 58.25 3.765C57.7515 3.54491 57.2515 3.32823 56.75 3.115C56.75 3.115 55.78 2.85 55.135 2.905C54.49 2.955 54.435 3.015 53.955 3.07C53.685 3.07 53.58 3.065 53.31 3.12C53.095 3.17 52.83 3.02 52.83 3.285C52.83 3.55 53.365 3.555 53.74 3.715C54.115 3.875 54.975 3.87 54.815 4.085C54.6 4.3 53.795 4.355 53.74 4.3C53.69 4.3 53.155 4.195 52.725 4.195C52.025 4.245 51.975 4.245 50.96 4.73C50.795 4.78 50.85 5.16 51.17 5.05C51.6596 4.91025 52.1659 4.83792 52.675 4.835C53.325 4.835 53.69 5.055 54.335 5.22C54.875 5.38 54.925 5.48 55.735 5.59C55.895 5.59 56.21 5.48 56.21 5.695C56.21 5.805 55.995 5.97 55.995 5.97C55.995 5.97 55.515 6.07 55.565 6.235C55.675 6.45 56.105 6.235 56.315 6.235C56.535 6.235 56.865 6.295 56.805 6.505L56.7 6.665C56.2048 6.79428 55.7187 6.9563 55.245 7.15C53.9 7.69 53.37 8.335 52.08 8.98C50.845 9.57 48.86 10.315 48.86 10.315C48.86 10.315 48.27 10.64 47.41 10.85C46.555 11.07 46.5 11.02 45.91 11.125C45.431 11.1526 44.9667 11.3005 44.56 11.555C44.2761 11.7022 44.0219 11.9005 43.81 12.14L43.06 13.275L42.625 13.91C42.52 14.125 42.415 14.23 42.365 14.445C42.255 14.715 42.2 14.825 42.15 15.095C41.99 15.735 42.15 16.115 42.255 16.76C42.31 16.92 42.31 17.03 42.365 17.19C42.415 17.35 42.625 17.515 42.625 17.515L42.84 17.565C42.84 17.565 43.6 17.515 44.08 17.405C44.565 17.3 45.265 17.13 45.265 17.13L46.17 16.87L46.77 16.655C46.77 16.655 47.145 16.655 47.2 16.87C47.25 17.03 47.09 17.3 47.09 17.3C47.09 17.3 46.765 17.45 46.495 17.56C46.225 17.67 45.58 17.83 45.53 17.885L44.83 18.1L44.24 18.155C44.24 18.155 44.13 18.21 44.025 18.37C43.915 18.535 43.915 18.53 43.915 18.635C44.025 18.745 44.08 18.85 44.19 18.96C44.405 19.12 44.51 19.225 44.775 19.28C45.15 19.44 45.365 19.39 45.74 19.39C46.2095 19.3912 46.6725 19.2798 47.09 19.065C47.52 18.795 47.68 18.8 48.27 18.585C48.4622 18.5283 48.6601 18.4931 48.86 18.48C49.88 18.37 50.46 18.53 51.485 18.695C52.505 18.855 52.995 19.18 54.015 19.34C55.09 19.5 55.73 19.82 56.855 19.555C57.395 19.445 57.72 19.175 57.99 19.71C58.255 20.195 58.205 20.46 58.205 20.46C58.205 20.46 58.2 20.79 57.825 21.81C57.445 22.83 56.27 25.355 56.27 25.355L55.46 26.965C55.46 26.965 54.81 28.25 53.31 29.915C52.7792 30.5057 52.2459 31.094 51.71 31.68C51.71 31.68 50.905 32.275 50.1 33.295C49.295 34.315 49.285 34.69 48.535 35.445C48.05 35.925 47.785 36.195 47.195 36.575C46.605 36.95 45.905 36.84 44.025 38.125C42.415 39.255 41.555 40.175 41.445 40.12C41.34 40.07 40.8 39.63 40.585 39.52C40.425 39.42 37.315 37.325 37.315 37.325L36.025 36.465L35.43 36.085L35.325 35.87L35.01 35.44C35.01 35.44 34.525 34.85 33.935 34.37C33.3237 33.7788 32.5604 33.3686 31.73 33.185C30.815 32.92 30.23 32.755 29.32 33.08C28.805 33.2489 28.3407 33.5446 27.97 33.94C27.435 34.475 27.325 34.905 26.895 35.55C26.465 36.195 26.035 36.79 25.82 37.11C25.605 37.435 25.175 38.295 25.175 38.295C25.175 38.295 24.105 40.01 23.515 41.135C22.815 42.37 22.55 43.13 21.905 44.31C20.885 46.19 19.43 48.12 19.055 48.975L18.635 49.945C18.635 49.945 18.52 50.42 18.47 50.745C18.415 51.065 18.415 51.605 18.36 51.82C18.3145 52.0348 18.2242 52.2375 18.095 52.415C18.045 52.465 17.45 53.7 17.235 54.505C17.02 55.305 16.535 57.835 17.13 58.155C17.72 58.48 22.065 56.605 22.655 54.775C23.035 53.595 21.475 53 21.905 51.925C22.065 51.55 22.175 51.5 22.44 51.125C22.87 50.425 22.71 48.98 23.515 47.64C24.105 46.675 25.285 45.43 26.895 43.605C27.915 42.48 28.885 40.655 28.885 40.655C28.885 40.655 29.1 40.01 29.535 40.12C30.015 40.225 30.44 40.17 30.44 40.17L30.655 40.335L31.085 40.765L31.73 41.73C31.73 41.73 32.81 43.28 33.18 43.715C33.56 44.145 33.935 44.465 34.475 44.895C35.065 45.43 35.275 45.7 36.025 46.295C37.1 47.15 36.72 47.475 35.325 46.72C34.7447 46.4256 34.1346 46.1943 33.505 46.03C32.865 45.865 30.445 45.22 29.21 45.06C28.03 44.9 27.81 44.955 27.81 44.955C27.81 44.955 27.22 44.895 26.525 45.325C25.825 45.755 25.45 46.075 25.45 46.075C25.45 46.075 24.645 46.99 24.59 47.15C24.54 47.31 24.16 47.95 24.16 47.95C24.16 47.95 23.94 48.28 23.89 48.65C23.78 49.03 23.84 49.405 23.84 49.405L23.89 50.205L23.945 50.955C23.945 50.955 24.11 52.84 24.485 54.72C24.59 55.255 24.7 56.115 24.7 56.115L24.96 58.05C24.96 58.05 25.125 60.095 25.285 60.79C25.445 61.44 25.555 61.49 25.665 61.915C25.88 62.72 25.505 63.095 25.88 64.065C26.255 65.03 26.58 64.915 26.955 65.51C27.225 65.94 27.325 66.045 27.54 66.585C27.755 67.12 28.455 68.9 29.26 70.185C30.12 71.53 31.25 73.19 32.005 73.03C32.755 72.865 33.29 71.69 33.29 71.69C33.29 71.69 34.15 69.375 33.615 67.12C33.075 64.81 30.605 65.895 30.285 64.23C30.235 63.855 30.285 63.265 30.285 63.265C30.285 63.265 30.225 62.56 30.12 62.345C30.01 62.13 29.15 60.525 28.83 59.18C28.56 58.16 28.615 54.88 28.4 53.965C27.81 51.605 27.755 51.815 28.075 51.39C28.455 50.96 28.78 51.065 28.78 51.065L29.26 51.125L29.64 51.28L30.335 51.71C30.55 51.87 31.3 52.46 31.3 52.46L33.125 53.645C33.125 53.645 34.15 54.24 34.58 54.455C35.01 54.67 35.38 54.935 35.38 54.935L35.86 55.255L36.67 55.855L36.825 56.005L36.935 56.22C36.935 56.22 37.315 57.085 38.925 58C40.215 58.75 41.345 58.53 41.825 59.125C41.935 59.23 42.84 60.475 43.275 61.225C43.81 62.08 44.455 63.095 44.67 63.42C44.885 63.74 46.23 65.4 46.23 65.4L48 67.335L50.315 69.485L52.405 71.26L53.74 72.335C53.74 72.335 54.925 73.465 56.27 74.375C57.56 75.235 57.61 75.34 58.47 75.925C59.11 76.36 59.97 76.955 60.83 77.6C61.69 78.3 62.66 79.58 62.285 80.01C62.015 80.17 61.53 79.48 60.615 78.675C60.0186 78.1387 59.3926 77.6363 58.74 77.17C57.775 76.42 57.285 76.035 56.21 75.39C55.675 75.07 54.71 74.485 54.66 74.59C54.285 75.72 54.33 76.79 54.385 78.185C54.435 79.15 54.6 80.115 54.92 81.35C55.19 82.53 55.46 83.18 55.89 84.305C56.32 85.435 57.13 87.205 57.13 87.205L58.36 89.68L59.49 91.555L60.08 92.52L60.295 92.84C60.295 92.84 60.56 93.49 60.295 93.915C60.03 94.34 59.7 95.26 59.22 95.315C58.735 95.42 57.61 95.48 57.61 95.48L51.22 95.37L47.89 95.1C47.89 95.1 47.52 94.885 45.59 94.885C44.46 94.885 43.545 95.365 42.9 95.42C42.365 95.47 39.73 95.26 37.96 95.955C36.295 96.655 35.54 96.815 34.95 97.89C34.52 98.695 37.05 99.99 39.14 100.47C42.525 101.22 41.555 99.77 42.84 98.86C43.005 98.75 43.06 98.65 43.225 98.595C44.08 98.325 44.56 99.015 45.425 99.015C46.385 99.015 46.925 98.695 47.89 98.535C52.775 97.89 60.4 100.195 60.4 100.195C60.4 100.195 62.285 100.785 63.145 100.625C64.165 100.41 63.945 100.035 64.265 99.445C64.535 98.96 64.43 98.86 64.48 98.32C64.48 98 64.43 97.84 64.375 97.52C64.16 96.605 63.575 95.315 63.575 95.315C63.575 95.315 63.14 94.35 62.975 93.865C62.765 93.17 62.55 92.735 62.44 91.985C62.12 89.995 62.175 90.16 62.175 89.035C62.175 86.995 62.39 85.865 62.925 83.88C63.735 80.98 65.24 79.745 66.365 76.955C66.69 76.205 66.685 75.13 67.065 75.02C67.49 74.97 67.44 76.365 67.225 77.17C66.525 79.96 64.81 81.14 64.005 83.985C63.415 86.185 63.09 87.47 63.255 89.725C63.305 90.96 63.79 92.9 63.79 92.9C63.79 92.9 64.435 95.045 64.755 95.85C65.08 96.655 65.72 98 65.72 98L67.17 100.575L67.92 101.805C67.92 101.805 68.45 102.29 68.185 103.095C67.915 103.9 67.385 104.395 66.735 105.09C64.915 107.24 60.675 110.4 59.6 111.15C58.1 112.28 58.145 112.605 58.035 112.93C57.445 114.65 55.725 114.7 53.85 116.74C53.42 117.17 52.295 118.345 52.51 119.365C52.615 119.74 57.235 120.55 59.92 119.425C62.02 118.51 60.19 117.485 60.78 116.465C61.21 115.715 62.28 115.715 62.765 115.065C63.565 113.995 63.03 114.05 63.73 113.195C66.04 110.4 67.545 108.795 71.68 106.27C72.055 106.055 72.755 105.735 72.755 105.735C72.755 105.735 73.34 105.46 73.555 105.135C73.825 104.705 73.77 104.335 73.77 103.85C73.77 103.525 73.72 103.37 73.72 103.05C73.72 102.67 73.77 102.455 73.66 102.08C73.555 101.49 73.185 101.005 72.97 100.68C72.5524 100.167 72.2735 99.5563 72.16 98.905C71.8672 97.9159 71.9255 96.856 72.325 95.905C72.755 94.78 73.72 93.87 73.72 93.87L76.13 92.255C76.13 92.255 78.23 90.75 78.88 90.155C79.575 89.565 80.915 88.33 81.88 86.935C83.01 85.38 83.6 84.41 84.08 82.535C84.24 81.835 84.405 80.765 84.405 80.765C84.405 80.765 84.405 80.015 84.835 79.965C85.26 79.91 85.37 80.065 85.37 80.065C85.37 80.065 85.74 80.275 85.85 81.35C85.9 82.425 85.585 83.665 85.585 83.665C85.585 83.665 85.26 84.895 85.155 85.645C85.105 86.13 85.095 86.395 85.095 86.935C85.095 87.85 85.475 88.605 85.475 88.605C85.475 88.605 85.69 88.765 85.69 88.39C85.7188 87.8084 85.811 87.2316 85.965 86.67C86.125 86.135 86.23 86.235 86.55 85.32C86.98 84.14 86.6 84.255 86.815 83.555C86.925 83.235 87.195 82.91 87.515 82.91C87.84 82.91 87.89 83.34 87.89 83.34C87.89 83.34 88.215 84.74 87.95 86.025C87.68 87.315 86.71 89.085 86.71 89.085L85.965 90.37C85.965 90.37 85.43 91.285 85.215 91.875C85 92.52 84.94 92.79 85.05 93.375C85.21 94.025 85.7 94.89 85.965 94.725C86.18 94.565 85.645 94.025 86.29 92.735C86.935 91.445 87.78 90.645 87.78 90.645C87.78 90.645 88.965 89.245 89.5 88.175C89.985 87.21 90.47 85.645 90.47 85.645C90.47 85.645 90.85 84.245 90.74 83.065C90.69 81.94 90.47 81.35 90.47 81.35L89.99 80.49L89.715 79.855L89.825 79.475C89.93 79.42 90.31 79.69 90.635 80.12C91.0266 80.6246 91.3 81.2107 91.435 81.835C91.5816 82.3231 91.6541 82.8304 91.65 83.34C91.65 83.77 91.495 85.54 92.135 86.67C92.405 87.21 93.05 88.44 93.105 87.9C93.21 86.665 92.67 86.08 92.725 84.95C92.775 83.665 93.105 83.985 93.21 83.34C93.32 82.64 93.475 82.475 93.37 81.565C93.2617 80.8919 93.1012 80.2282 92.89 79.58L92.51 78.72L92.35 78.4C92.35 78.4 92.455 78.245 92.615 78.245L93.905 77.815C93.905 77.815 95.575 77.065 96.22 76.525C96.92 76.04 97.72 75.175 97.72 75.175C97.72 75.175 98.795 73.84 99.335 72.875C100.625 70.455 100.62 67.395 100.565 65.995C100.515 64.655 100.135 62.88 100.135 62.88C100.135 62.88 99.705 60.73 99.815 59.335C99.92 57.94 100.03 57.295 100.03 57.295C100.03 57.295 99.98 55.9 101.16 54.395C102.34 52.895 102.87 51.93 103.085 50.8C103.3 49.835 102.975 48.28 102.545 48.87C102.065 49.515 101.86 50.805 101.16 51.875C100.195 53.38 98.79 55.205 98.095 55.205C97.72 55.205 97.615 54.345 97.615 54.345C97.615 54.345 97.135 52.895 97.94 51.065C98.53 49.775 98.845 49.405 99.6 48.44C100.3 47.525 100.725 47.04 101.21 46.075C101.64 45.215 101.74 45.055 102.01 43.715C102.06 43.39 101.96 42.695 101.64 42.745C101.21 42.745 100.03 45.33 98.795 46.78C97.615 48.12 95.41 49.835 95.41 49.835C95.41 49.835 95.195 49.99 95.195 49.56C95.145 49.185 95.085 48.06 95.3 47.045C95.5697 45.7688 96.0622 44.5502 96.755 43.445C97.775 41.675 99.06 40.445 99.705 39.795C99.975 39.53 100.78 39.04 100.355 38.77C99.975 38.555 98.845 39.52 97.985 40.17C96.915 40.97 96.54 41.195 95.47 42.485C94.395 43.77 94.12 44.31 94.12 44.31C94.12 44.31 93.1 45.97 92.83 47.58C92.56 49.19 92.565 50.1 92.565 50.1C92.565 50.1 92.565 51.555 92.725 52.415C92.83 53.325 93.21 54.715 93.21 54.715C93.21 54.715 93.75 56.28 93.96 57.25C94.18 58.215 94.55 61.055 94.55 61.055C94.55 61.055 94.82 63.1 94.655 65.03C94.495 66.965 94.335 68.09 94.12 68.68C93.905 69.275 93.32 70.83 92.35 71.905C91.44 72.925 91.22 73.085 91.22 73.085C91.22 73.085 90.255 73.885 89.45 74.315C88.6375 74.7552 87.7935 75.1345 86.925 75.45C86.4819 75.5289 86.0344 75.5807 85.585 75.605H84.89L84.675 75.455L84.56 75.02C84.56 75.02 84.03 72.925 83.39 71.585C82.85 70.455 81.72 68.9 81.72 68.9C81.72 68.9 79.785 66.265 78.28 64.815C76.56 63.1 74.63 61.815 73.445 60.9C73.015 60.58 72.05 59.98 72.05 59.98C72.05 59.98 68.135 56.065 66.74 52.95C65.77 50.8 65.13 49.25 65.4 46.885C65.45 46.35 65.665 45.325 65.77 45.325L66.47 45.54C66.53 45.59 67.17 46.185 67.765 46.4C68.085 46.505 68.67 46.615 68.67 46.615C68.67 46.615 69.155 46.665 69.42 46.72C69.69 46.83 70.175 46.99 70.495 47.15C70.82 47.31 71.295 47.64 71.295 47.64L72.215 48.33L73.185 49.08C73.185 49.08 73.715 49.46 73.875 49.515C74.035 49.565 74.145 49.62 74.2 49.62H74.415C74.415 49.62 74.635 49.56 74.685 49.345C74.74 49.08 74.42 49.295 73.935 48.76C73.6356 48.5029 73.382 48.1969 73.185 47.855C73.185 47.855 73.075 47.42 72.645 46.935C72.215 46.45 71.68 46.025 71.68 46.025C71.68 46.025 71.3 45.76 70.76 45.595C70.225 45.435 70.06 45.43 70.01 45.215C69.96 45 70.655 45.11 70.655 45.11C70.655 45.11 71.465 45.215 72.105 45.54C72.755 45.86 73.125 46.24 73.125 46.24L73.555 46.615L73.83 46.885L74.09 47.045C74.09 47.045 74.36 47.31 74.415 46.935C74.465 46.615 74.36 46.345 74.305 46.29L74.04 46.025L72.97 45.11C72.7107 44.8302 72.4224 44.5788 72.11 44.36C71.6757 44.0538 71.2055 43.802 70.71 43.61C70.175 43.39 69.855 43.445 69.315 43.175C68.94 43.015 68.615 42.91 68.4 42.59C68.345 42.54 68.08 42.315 68.565 42.425C69.045 42.53 69.365 42.695 69.9 42.805C70.76 43.02 71.3 43.015 72.11 43.285C72.43 43.39 72.86 43.605 72.86 43.605L73.875 44.035C73.875 44.035 75.275 44.79 76.24 44.845C76.9553 44.9003 77.6737 44.7909 78.34 44.525C78.7298 44.3653 79.0925 44.146 79.415 43.875C79.5136 43.7786 79.6009 43.6713 79.675 43.555L79.785 43.285V43.07C79.515 42.745 78.985 43.61 78.125 43.77C77.21 43.935 77.26 44.035 76.67 43.93C76.0957 43.8698 75.5627 43.6033 75.17 43.18C74.305 42.37 73.99 41.62 72.86 41.135C72.38 40.92 71.51 40.705 71.51 40.705C71.51 40.705 70.33 40.33 69.685 39.955C69.205 39.685 68.195 39.525 68.515 39.095C68.675 38.88 69.965 39.63 70.925 39.74C71.625 39.845 72.11 39.795 72.645 39.795C73.18 39.795 73.935 39.63 74.045 39.63C74.15 39.58 74.575 39.63 74.95 39.74C75.325 39.845 75.54 40.005 75.915 40.17C76.295 40.33 76.73 40.6 76.835 40.6L77.05 40.655L77.16 40.55L77.21 40.44L77.16 40.335L76.99 40.225L76.67 40.01C76.67 40.01 76.19 39.74 75.76 39.31C75.33 38.88 74.95 38.4 74.31 38.185C73.66 37.97 72.91 37.865 72.91 37.865L72.16 37.805L71.835 37.755C71.835 37.755 71.3 37.59 71.73 37.485C71.9749 37.4101 72.2258 37.3566 72.48 37.325C72.8909 37.2361 73.3176 37.2533 73.72 37.375C74.15 37.535 74.85 37.91 74.9 37.91C74.955 37.965 75.6 38.455 76.3 38.615C77 38.775 77.91 38.83 77.91 38.83L78.34 38.725L78.555 38.665L78.71 38.555L78.66 38.295C78.66 38.295 78.66 38.075 78.34 38.02C77.7786 37.9548 77.2415 37.754 76.775 37.435C76.185 37.005 75.76 36.575 75.76 36.575C75.76 36.575 75.33 36.195 74.47 35.975C73.67 35.765 73.4 35.765 73.4 35.765L73.125 35.655L72.54 35.395C72.54 35.395 72.265 35.23 72.05 34.965C71.835 34.695 71.52 34.205 72.43 34.475C73.345 34.745 73.555 34.905 73.555 34.905C73.555 34.905 74.04 35.39 74.47 35.44C74.74 35.495 74.955 35.55 75.12 35.335C75.385 35.065 74.63 34.745 74.09 34.365C73.7478 34.0975 73.4565 33.7706 73.23 33.4C73.23 33.4 72.915 33.135 73.4 33.245C73.88 33.35 74.735 33.89 74.735 33.89C74.735 33.89 75.165 34.1 75.385 34.155C75.54 34.205 75.975 34.475 76.19 34.58C76.35 34.635 76.84 34.745 77.155 34.905C77.585 35.175 77.805 35.605 78.015 35.765C78.23 35.925 78.395 36.2 78.665 36.25C78.93 36.305 78.98 36.41 79.14 36.3C79.2149 36.2529 79.2867 36.2012 79.355 36.145C79.355 36.145 79.405 36.03 79.14 35.87C78.875 35.71 78.555 35.285 78.555 35.285L78.445 35.07L78.39 34.855L78.125 34.425L77.635 33.725C77.635 33.725 76.885 32.705 76.19 32.325C75.545 31.95 75.06 31.74 75.06 31.74C75.06 31.74 74.74 31.585 74.58 31.475C74.31 31.26 74.2 31.09 73.98 30.825C73.715 30.5 73.615 30.295 73.29 29.975C72.7 29.385 70.875 29.055 71.57 28.625C71.95 28.41 72.43 28.525 72.645 28.575C72.86 28.63 73.345 28.835 73.83 28.995C74.15 29.105 74.365 29.115 74.685 29.22C75.01 29.33 75.385 29.375 75.545 29.485C75.705 29.59 75.87 29.81 75.975 29.865C76.03 29.915 76.455 30.615 77.205 30.99C77.955 31.365 78.34 31.63 79.09 31.68C79.68 31.735 80.64 31.53 80.64 31.53C80.64 31.53 80.915 31.415 80.7 31.145C80.435 30.875 80.43 30.825 80.215 30.775C79.355 30.45 78.665 30.56 78.015 29.915C77.75 29.645 77.635 29.59 77.42 29.165C77.205 28.735 77.32 28.63 77.16 28.365C77.05 28.095 76.775 27.715 76.775 27.715C76.775 27.715 75.975 26.745 75.115 26.265C74.5233 25.9643 73.9637 25.6041 73.445 25.19C73.285 25.08 72.97 24.65 72.97 24.65L72.695 24.22L72.54 23.9C72.43 23.31 73.5 24.065 74.09 24.28C75.06 24.6 75.545 25.03 76.515 25.355C77.05 25.515 77.375 25.51 77.91 25.725C78.82 26.1 79.09 27.015 80.06 27.125C80.595 27.175 81.67 27.39 81.455 26.905C81.24 26.37 80.165 26.37 79.63 25.725C79.36 25.455 79.36 25.195 79.09 24.925C78.66 24.385 77.64 23.9 77.64 23.9C77.64 23.9 77.32 23.635 76.94 22.885C76.62 22.135 75.815 21.585 74.365 20.89C73.4 20.41 71.465 20.3 72.215 19.815C72.645 19.495 73.02 19.55 73.615 19.71C74.205 19.925 74.415 20.2 74.9 20.41C75.385 20.63 75.6 20.68 75.7 20.735C75.81 20.785 76.185 20.95 76.35 20.95C76.45 21 77.265 21.11 77.48 21.165L78.555 21.43L79.415 21.75C79.415 21.75 79.84 21.915 80.105 21.915C80.37 21.915 80.81 21.81 80.81 21.81L81.13 21.595L81.18 21.485C81.18 21.485 81.345 21.22 80.915 21.165C80.7032 21.1311 80.4894 21.1111 80.275 21.105L79.89 21L79.74 20.95C79.74 20.95 78.985 20.36 78.34 20.09C78.0681 19.9882 77.7981 19.8815 77.53 19.77L77.265 19.71L76.945 19.66C76.945 19.66 76.67 19.66 76.24 19.28C75.81 18.905 75.65 18.69 75.275 18.315L74.795 17.835C74.795 17.835 74.365 17.505 74.365 17.235C74.415 16.81 75.33 17.725 75.33 17.725L75.98 18.155C75.98 18.155 76.515 18.535 77.48 18.585C78.445 18.64 79.63 18.315 79.63 18.315C79.63 18.315 79.785 18.215 80.32 18.37C80.855 18.525 81.29 18.85 81.29 18.85L81.72 19.23L82.365 19.925L82.47 19.875C82.52 19.825 82.795 19.55 82.315 18.96C81.83 18.365 81.025 17.835 81.025 17.835C81.025 17.835 79.95 17.19 78.875 16.975C77.805 16.76 77.315 16.76 77.315 16.76C77.315 16.76 76.51 16.76 76.025 16.225C75.54 15.685 75.225 15.15 75.225 15.15L75.06 14.4C75.06 14.4 74.795 14.075 74.26 13.86C73.775 13.645 73.23 13.325 73.23 13.325C73.23 13.325 72.43 13.055 72.37 12.675C72.21 11.98 73.72 12.675 74.52 12.835C75.27 12.995 75.595 13.27 76.345 13.435C76.9036 13.5937 77.4873 13.6446 78.065 13.585C78.44 13.585 78.655 13.545 79.03 13.485C79.41 13.485 79.68 13.435 80.06 13.485C80.595 13.595 80.81 13.86 81.345 14.075C81.67 14.235 81.83 14.39 82.205 14.445C82.53 14.5 83.175 14.72 83.065 14.395L82.9 14.18C82.63 13.805 82.315 13.805 81.99 13.54C81.29 13 80.97 12.575 80.165 12.2C79.712 11.9579 79.222 11.7923 78.715 11.71C78.28 11.66 77.96 11.77 77.53 11.66C77.045 11.5 76.89 11.285 76.405 11.02C75.655 10.59 75.22 10.21 74.415 9.885C73.9402 9.71431 73.4561 9.57075 72.965 9.455L72.585 9.405L72.435 9.35C71.68 9.08 73.77 8.495 74.735 8.225C75.22 8.12 75.435 8.005 75.915 8.06C76.345 8.11 76.83 8.71 77.315 8.44C78.015 8.065 76.51 7.04 76.025 6.88C75.38 6.61 74.255 6.83 74.255 6.83L71.785 6.77L71.085 6.665C71.085 6.665 70.655 6.665 70.335 6.29C70.01 5.915 68.78 4.405 67.385 4.19C65.935 3.975 65.505 4.19 65.4 4.09C64.165 2.15 62.87 1.725 61.9 0.815C61.635 0.545 61.21 -0.05 61.1 0.005L61.105 0ZM66.97 5.7C67.0549 5.69591 67.14 5.69591 67.225 5.7L67.49 5.865C67.71 6.0825 67.8909 6.3362 68.025 6.615C68.08 6.83 67.385 6.565 67.12 6.505C66.8474 6.42893 66.5926 6.29979 66.37 6.125C66.37 6.125 66.255 5.965 66.52 5.805C66.6591 5.73308 66.8134 5.69537 66.97 5.695V5.7ZM68.23 8.35C68.36 8.35 68.455 8.38 68.455 8.38L68.72 8.55C68.9401 8.76738 69.1211 9.0211 69.255 9.3C69.31 9.515 68.615 9.25 68.35 9.19C68.0774 9.11393 67.8226 8.98479 67.6 8.81C67.6 8.81 67.49 8.65 67.815 8.49C67.9342 8.3996 68.0804 8.35204 68.23 8.355V8.35ZM58.82 8.42C58.9537 8.4132 59.0877 8.4199 59.22 8.44C59.22 8.44 59.435 8.44 59.755 8.595C60.08 8.81 60.295 9.455 60.295 9.455C60.295 9.455 60.345 9.565 60.08 9.565C59.915 9.565 59.915 9.3 59.755 9.19C59.54 9.03 59.38 8.975 59.11 8.87C58.845 8.765 58.47 8.92 58.42 8.655C58.42 8.495 58.62 8.435 58.82 8.42V8.42ZM54.6 9.045C54.81 8.985 54.6 9.405 54.6 9.405C54.6 9.405 53.905 10.53 52.94 10.96C51.975 11.39 51.33 11.61 49.5 11.77C49.235 11.77 49.35 11.605 49.35 11.605C49.35 11.605 51.435 11.02 52.62 10.375C53.1852 10.0614 53.7237 9.70183 54.23 9.3C54.3373 9.19513 54.4627 9.11045 54.6 9.05V9.045ZM58.36 9.345C58.36 9.345 58.685 9.355 59.06 9.62C59.44 9.89 59.76 10.805 59.76 10.805C59.76 10.805 59.87 11.39 59.6 11.605C59.33 11.82 58.9 11.45 58.68 11.125C58.4884 10.8541 58.2035 10.6636 57.88 10.59C57.45 10.43 56.805 10.91 56.7 10.59C56.7 10.48 56.75 10.21 56.75 10.21C56.75 10.21 56.86 9.89 57.345 9.625C57.775 9.355 58.36 9.35 58.36 9.35V9.345ZM68.35 11.42C68.565 11.44 68.865 11.605 69.1 11.605C69.8 11.605 70.385 11.605 70.87 11.71C71.3 11.82 71.405 12.085 71.19 12.085C71.0336 12.1268 70.8718 12.1453 70.71 12.14C70.23 12.14 70.28 11.925 69.64 12.25C68.99 12.57 69.475 12.415 68.565 12.735C67.705 13.06 67.915 12.2 67.915 12.2C67.915 12.2 67.98 12.035 68.085 11.6C68.125 11.445 68.22 11.405 68.35 11.42V11.42ZM44.13 13.91C44.455 13.91 45.05 14.13 45.05 14.61C45.1 15.095 44.72 14.88 44.45 15.04C44.295 15.15 44.19 15.205 43.975 15.365C43.705 15.58 43.435 16.115 43.275 15.95C43.055 15.79 43.165 15.2 43.165 15.2C43.165 15.2 43.33 14.77 43.545 14.34C43.815 13.91 44.13 13.91 44.13 13.91ZM69.815 14.465C69.8996 14.469 69.9834 14.4824 70.065 14.505C70.065 14.505 70.225 14.555 70.33 14.66C70.44 14.77 70.87 15.15 70.87 15.36C70.87 15.525 70.175 15.25 69.855 15.2C69.53 15.145 69.105 14.825 69.105 14.825C69.105 14.825 68.995 14.725 69.315 14.565C69.4709 14.4911 69.6426 14.4567 69.815 14.465ZM60.34 14.905C60.39 14.905 60.385 14.98 60.29 15.15C60.08 15.58 59.435 16.115 59.435 16.115C59.435 16.115 58.685 17.185 58.525 17.345C57.825 17.885 56.965 17.565 56.59 17.62C56.27 17.67 56.485 17.345 56.485 17.345C56.485 17.345 57.4 16.975 57.985 16.655C58.775 16.26 60.12 14.905 60.34 14.905ZM49.3 15.85C49.415 15.85 49.505 15.9 49.505 16.065C49.56 16.44 48.865 16.705 48.865 16.705C48.865 16.705 48.655 16.76 48.6 16.385C48.55 16.01 48.865 15.955 48.865 15.955C48.865 15.955 49.115 15.835 49.3 15.85V15.85ZM62.6 16.435C62.69 16.385 62.615 16.92 62.615 16.92C62.615 16.92 62.45 17.625 62.075 17.84C61.595 18.11 60.405 18.43 60.3 18.27C60.3 18.16 61.855 17.67 62.55 16.495C62.5618 16.4714 62.5789 16.4508 62.6 16.435V16.435ZM69.87 16.63C69.9575 16.6305 70.0447 16.6405 70.13 16.66C70.13 16.66 70.28 16.71 70.445 16.81C70.605 16.975 70.985 17.41 71.04 17.625C71.09 17.84 70.34 17.575 69.965 17.52C69.645 17.465 69.155 17.09 69.155 17.09C69.155 17.09 69.055 16.925 69.38 16.765C69.5264 16.6725 69.6969 16.6255 69.87 16.63V16.63ZM63.365 17.85C63.465 17.82 63.305 18.27 63.305 18.27C63.305 18.27 63.09 18.97 62.66 19.13C62.125 19.29 60.09 19.34 60.035 19.18C59.985 19.015 62.395 18.8 63.305 17.89C63.3208 17.8713 63.3416 17.8574 63.365 17.85V17.85ZM70.035 18.775C70.1357 18.7749 70.2363 18.7849 70.335 18.805C70.335 18.805 70.5 18.855 70.66 18.965C70.82 19.125 71.25 19.615 71.305 19.88C71.355 20.205 70.555 19.88 70.18 19.775C69.8442 19.6736 69.5316 19.5071 69.26 19.285C69.26 19.285 69.155 19.13 69.475 18.915C69.6446 18.8162 69.8388 18.7676 70.035 18.775V18.775ZM70.035 21.46C70.1357 21.4599 70.2363 21.4699 70.335 21.49C70.335 21.49 70.5 21.54 70.66 21.65C70.82 21.81 71.25 22.3 71.305 22.565C71.355 22.835 70.555 22.51 70.18 22.4C69.8444 22.3028 69.5317 22.1396 69.26 21.92C69.26 21.92 69.155 21.815 69.475 21.6C69.6451 21.5029 69.8393 21.4561 70.035 21.465V21.46ZM62.195 24.03C62.61 24.15 62.23 27.175 61.43 28.58C60.3994 30.3049 59.1526 31.8911 57.72 33.3C56.97 33.835 57.455 32.87 57.455 32.87C57.455 32.87 59.545 29.975 60.515 27.935C61.215 26.485 61.645 24.555 61.965 24.175C62.065 24.065 62.135 24.015 62.195 24.03V24.03ZM69.945 24.07C70.0615 24.0738 70.1772 24.0906 70.29 24.12C70.29 24.12 70.5 24.17 70.66 24.335C70.82 24.495 71.36 25.09 71.41 25.36C71.41 25.68 70.5 25.245 70.075 25.195C69.7018 25.09 69.3556 24.9058 69.06 24.655C69.06 24.655 68.945 24.44 69.32 24.225C69.5064 24.1079 69.7255 24.0535 69.945 24.07V24.07ZM69.605 26.67C69.7056 26.6683 69.8061 26.6766 69.905 26.695C69.905 26.695 70.07 26.755 70.23 26.865C70.39 27.025 70.82 27.505 70.875 27.77C70.925 28.04 70.125 27.72 69.75 27.665C69.418 27.5665 69.1088 27.4033 68.84 27.185C68.84 27.185 68.74 27.02 69.055 26.805C69.2216 26.7082 69.4125 26.6613 69.605 26.67V26.67ZM69.45 29C69.5299 28.996 69.61 28.996 69.69 29L69.965 29.165C70.1866 29.3822 70.3693 29.6359 70.505 29.915C70.505 30.135 69.855 29.865 69.535 29.815C69.215 29.76 68.785 29.44 68.785 29.44C68.785 29.44 68.675 29.28 69 29.12C69.1385 29.0451 69.2926 29.004 69.45 29V29ZM69.155 31.285C69.2306 31.2897 69.3058 31.2997 69.38 31.315L69.595 31.425C69.7 31.53 70.015 31.85 70.015 32.01C70.015 32.225 69.43 31.96 69.215 31.96C68.9997 31.8956 68.8004 31.7866 68.63 31.64C68.63 31.64 68.57 31.525 68.78 31.365C68.89 31.285 69.03 31.28 69.155 31.285V31.285ZM68.705 33.395C68.7668 33.3946 68.8286 33.398 68.89 33.405L69.105 33.515C69.215 33.62 69.475 33.89 69.475 34.05C69.425 34.16 68.94 33.945 68.725 33.945C68.5362 33.8795 68.3565 33.7905 68.19 33.68C68.19 33.68 68.14 33.57 68.355 33.465C68.4652 33.4164 68.5846 33.3925 68.705 33.395V33.395ZM30.66 34.43C31.25 34.54 31.36 34.59 31.305 34.86C31.355 35.13 30.61 35.125 30.61 35.125C30.61 35.125 29.53 35.345 29.695 34.97C29.91 34.59 30.66 34.43 30.66 34.43V34.43ZM68.215 35.055C68.325 35.055 68.415 35.075 68.415 35.075L68.63 35.185C68.735 35.29 69 35.56 69 35.72C68.945 35.88 68.46 35.67 68.25 35.615C68.03 35.56 67.71 35.34 67.71 35.34C67.71 35.34 67.66 35.23 67.875 35.125C67.9816 35.0764 68.0978 35.0525 68.215 35.055V35.055ZM67.615 36.94C67.6652 36.9399 67.7153 36.9432 67.765 36.95L67.925 37.06C67.975 37.11 68.245 37.38 68.245 37.49C68.245 37.65 67.865 37.49 67.65 37.44C67.49 37.39 67.23 37.225 67.23 37.225C67.23 37.225 67.18 37.115 67.34 37.01C67.4215 36.9615 67.5152 36.9372 67.61 36.94H67.615ZM52.31 37.54C52.6142 37.5399 52.9181 37.5582 53.22 37.595C54.72 37.81 56.17 39.155 55.95 39.315C55.735 39.475 55.415 39.315 55.305 39.315L54.77 39.05L53.96 38.835C53.96 38.835 52.51 38.51 51.44 38.56C50.365 38.615 49.4 38.99 49.4 38.99C49.4 38.99 48.97 39.21 48.865 38.94C48.81 38.62 49.03 38.455 49.03 38.455L49.08 38.345C49.08 38.345 50.31 37.525 52.31 37.535V37.54ZM26.745 38.18C26.78 38.18 26.795 38.19 26.795 38.19L26.9 38.3C26.85 38.3 27.06 38.835 26.58 39.37C26.095 39.91 24.595 42.755 24.275 42.27C23.95 41.895 25.725 39.205 26.1 38.67C26.38 38.225 26.635 38.18 26.745 38.18V38.18ZM66.995 38.765C67.07 38.765 67.125 38.775 67.125 38.775L67.28 38.835L67.555 39.205C67.5 39.365 67.175 39.26 67.015 39.205C66.855 39.205 66.635 38.99 66.635 38.99C66.635 38.99 66.585 38.94 66.745 38.84C66.8196 38.7919 66.9063 38.7659 66.995 38.765V38.765ZM33.08 40.28C33.165 40.25 33.225 40.32 33.295 40.34L33.56 40.445L33.725 40.605L34.265 41.14C34.48 41.46 35.065 42.54 34.955 42.64C34.475 43.125 34.315 42.48 33.62 41.675C32.92 40.925 33.08 40.28 33.08 40.28V40.28ZM66.245 40.53C66.2877 40.5315 66.33 40.54 66.37 40.555L66.53 40.605L66.8 40.985C66.8 41.09 66.475 40.925 66.315 40.925C66.15 40.925 65.94 40.71 65.94 40.71C65.94 40.71 65.83 40.66 65.99 40.605C66.0665 40.5577 66.155 40.5334 66.245 40.535V40.53ZM42 42.485C42.175 42.5 41.935 42.81 41.935 42.81C41.935 42.81 41.015 44.04 40.48 44.795C39.78 45.81 38.92 47.365 38.76 47.205C38.6 47.045 39.515 45.335 40 44.42C40.535 43.295 41.34 42.705 41.66 42.595C41.7648 42.5368 41.8806 42.5011 42 42.49V42.485ZM26.74 46.51L26.845 46.62C26.845 46.62 26.9 46.83 26.525 47.42C26.15 48.01 25.875 48.015 25.875 48.015C25.875 47.965 25.775 47.75 26.095 47.105C26.415 46.46 26.74 46.51 26.74 46.51ZM20.155 48.61C20.1861 48.6182 20.214 48.6357 20.235 48.66C20.395 48.875 19.915 49.84 19.915 49.84C19.915 49.84 19.43 50.855 19.265 50.425C19.105 50.05 19.435 49.355 19.435 49.355C19.81 49.025 19.975 48.575 20.155 48.61V48.61ZM62.98 49.995C63.46 50.05 63.41 50.965 63.41 51.18C63.57 52.735 64.22 54.3 65.4 56.18C67.065 58.81 69.75 60.85 69.64 61.015C69.37 61.28 66.69 59.185 65.72 58.005C64.11 56.07 62.92 53.975 62.55 51.345C62.44 50.755 62.44 49.89 62.98 49.995ZM31.36 50.745C31.465 50.745 31.945 50.915 31.945 50.915L33.125 51.395C33.175 51.395 33.775 51.665 34.26 51.93L35.43 52.68L35.76 52.955C35.76 53.065 36.135 53.655 35.38 53.495C34.63 53.33 33.02 52.095 32.375 51.775C31.725 51.455 30.66 51.345 31.145 50.915C31.195 50.865 31.25 50.75 31.36 50.75V50.745ZM25.66 53.71C25.6963 53.703 25.7337 53.703 25.77 53.71C26.095 53.71 26.095 53.97 26.095 53.97V54.135C26.095 54.135 26.09 55.105 26.145 55.855C26.145 56.07 26.74 58.485 26.74 58.485C26.74 58.485 26.845 58.7 26.63 58.7C26.47 58.7 26.31 58.375 26.31 58.375C26.31 58.375 25.875 57.735 25.71 57.255C25.555 56.825 25.5 56.12 25.5 56.12C25.5 56.12 25.39 55.21 25.39 54.89C25.445 54.46 25.445 54.08 25.5 53.865C25.5073 53.8266 25.526 53.7913 25.5537 53.7637C25.5813 53.736 25.6166 53.7173 25.655 53.71H25.66ZM18.21 54.995C18.2592 54.9823 18.3108 54.9823 18.36 54.995C18.68 55.05 18.515 55.635 18.515 55.905C18.515 56.175 18.205 56.655 18.095 56.655C17.99 56.655 17.77 56.175 17.825 55.905C17.875 55.67 17.915 55.07 18.215 54.995H18.21ZM45.42 59.46C46.03 59.41 47.795 61.945 50.36 64.71C53.26 67.83 56.64 70.785 56.75 71.16C56.965 71.805 54.385 69.76 52.99 68.69C49.285 65.84 44.775 60.045 45.315 59.51C45.3435 59.4822 45.3804 59.4646 45.42 59.46V59.46ZM96.785 62.075C96.885 62.065 96.97 62.195 96.97 62.195L97.08 62.35C97.08 62.46 97.72 64.98 97.665 66.59C97.555 68.84 97.455 70.455 96.115 72.175C94.5 74.27 91.705 76.425 92.295 74.705C92.67 73.685 95.145 72.395 96.11 69.55C96.65 67.83 96.76 66.215 96.76 66.215L96.65 62.945C96.65 62.945 96.59 62.68 96.59 62.3C96.65 62.14 96.725 62.085 96.79 62.075H96.785ZM69.395 67.675C69.895 67.73 70.12 68.045 69.53 68.475C68.83 68.955 68.565 68.9 68.13 69.38C67.65 69.97 67.495 71.965 67.01 71.16C66.53 70.355 66.85 69.225 67.66 68.365C67.8754 68.1225 68.1443 67.9334 68.4455 67.8128C68.7466 67.6921 69.0717 67.6433 69.395 67.67V67.675ZM30.4 69.87C30.605 69.83 31.145 70.24 31.145 70.24C31.41 70.29 31.68 70.78 31.68 70.78C31.68 70.78 31.79 71.16 31.465 71.265C31.145 71.425 30.93 71.1 30.93 71.1C30.93 71.1 30.23 70.135 30.33 69.92C30.3369 69.9067 30.3468 69.8953 30.359 69.8866C30.3712 69.8779 30.3852 69.8722 30.4 69.87ZM81.935 77.495C82.04 77.495 82.26 77.605 82.53 78.145C82.8 78.685 82.1 82.485 81.24 81.945C80.755 81.625 81.505 80.665 81.505 79.86C81.505 79.215 81.395 78.725 81.395 78.19C81.395 77.655 81.935 77.495 81.935 77.495V77.495ZM66 84.12C66.19 84.14 66.24 84.41 65.98 84.95C65.605 85.755 65.5 86.025 65.445 86.78C65.335 87.58 65.825 89.83 65.075 88.98C64.805 88.6 64.535 86.83 64.75 85.97C64.985 84.76 65.68 84.095 66 84.12V84.12ZM61.9 94.71C62.08 94.685 62.17 94.775 62.17 94.775C62.28 94.99 62.06 95.21 62.005 95.265C61.8026 95.37 61.5849 95.4426 61.36 95.48C61.04 95.53 61.21 95.265 61.21 95.265C61.21 95.265 61.415 94.935 61.685 94.775C61.7525 94.7414 61.8252 94.7194 61.9 94.71V94.71ZM47.515 95.85C47.945 95.85 47.945 96.065 47.945 96.065C47.945 96.225 47.78 96.285 47.345 96.23C46.975 96.18 46.925 96.07 46.98 96.015C46.98 95.965 47.085 95.85 47.515 95.85ZM50.775 96.005C50.8153 96.0006 50.856 96.004 50.895 96.015C50.895 96.015 52.72 96.335 53.9 96.385C54.76 96.44 55.19 96.5 56.05 96.445C56.535 96.445 56.265 96.385 57.015 96.385C57.285 96.335 57.125 96.715 56.91 96.77C56.105 96.985 55.78 96.87 55.085 96.925C54.49 96.975 54.22 97.03 53.63 97.03C52.61 97.03 52.51 97.09 51.06 96.66C50.79 96.555 50.46 96.23 50.57 96.125C50.593 96.0909 50.6234 96.0625 50.6589 96.0417C50.6943 96.021 50.734 96.0084 50.775 96.005V96.005ZM38.6 96.33C39.23 96.345 39.03 96.555 39.03 96.555C39.03 96.555 39.025 96.765 38.65 97.03C38.27 97.3 38.115 97.14 38.06 97.14C38.01 97.14 37.63 96.925 37.63 96.71C37.685 96.495 38.28 96.34 38.28 96.34C38.3863 96.3297 38.4932 96.3263 38.6 96.33ZM72.405 103.73C72.4486 103.729 72.4921 103.732 72.535 103.74L72.64 103.955C72.64 104.005 72.21 104.605 71.995 104.605C71.73 104.545 71.83 104.23 71.83 104.23C71.83 104.23 71.725 103.905 72.045 103.8C72.1605 103.758 72.282 103.734 72.405 103.73V103.73ZM68.395 105.32C68.435 105.32 68.485 105.325 68.51 105.35V105.565C68.56 105.73 67.16 107.29 66.195 108.205C65.285 109.065 63.725 110.245 63.725 110.245H63.51V109.97L63.57 109.865L63.675 109.705L63.785 109.54L63.89 109.39L64.215 109.005L64.965 108.31L65.715 107.61L66.9 106.425C66.9 106.425 67.325 105.95 67.485 105.84C67.645 105.735 67.755 105.625 67.915 105.52C68.075 105.44 68.265 105.33 68.395 105.32V105.32ZM60.63 111.785C60.6742 111.779 60.7194 111.781 60.7624 111.794C60.8055 111.806 60.8455 111.827 60.88 111.855C61.045 112.23 60.78 112.335 60.78 112.335L60.29 112.715C60.235 112.715 59.915 112.985 59.81 112.82C59.7 112.66 59.86 112.445 59.86 112.39C59.86 112.34 60.185 111.965 60.455 111.855C60.5079 111.82 60.5675 111.796 60.63 111.785V111.785ZM55.395 116.755C55.615 116.73 55.775 117.06 55.775 117.06C55.775 117.06 55.885 117.215 55.885 117.43C55.885 117.595 55.4 117.54 55.135 117.755C54.81 117.97 55.46 118.62 54.435 118.565C53.85 118.515 54.17 117.975 54.225 117.92L54.595 117.385C54.865 117.005 55.03 116.95 55.295 116.785C55.3256 116.767 55.3598 116.757 55.395 116.755Z" fill="white"/>
</svg>
