<svg width="30" height="30" viewBox="0 0 30 30" fill="none" xmlns="http://www.w3.org/2000/svg">
<path d="M17.3438 2.8125C22.7803 2.8125 27.1875 7.21969 27.1875 12.6562C27.1875 18.0928 22.7803 22.5 17.3438 22.5C14.9625 22.5 12.78 21.6553 11.0775 20.2481L4.41281 26.9138C4.2369 27.0895 3.99836 27.1882 3.74967 27.1882C3.50098 27.1881 3.26251 27.0892 3.08672 26.9133C2.91093 26.7374 2.81222 26.4988 2.81231 26.2501C2.8124 26.0014 2.91127 25.763 3.08719 25.5872L9.75188 18.9216C8.29337 17.1598 7.49678 14.9434 7.5 12.6562C7.5 7.21969 11.9072 2.8125 17.3438 2.8125ZM25.3125 12.6562C25.3125 10.5428 24.4729 8.51592 22.9785 7.02149C21.4841 5.52706 19.4572 4.6875 17.3438 4.6875C15.2303 4.6875 13.2034 5.52706 11.709 7.02149C10.2146 8.51592 9.375 10.5428 9.375 12.6562C9.375 14.7697 10.2146 16.7966 11.709 18.291C13.2034 19.7854 15.2303 20.625 17.3438 20.625C19.4572 20.625 21.4841 19.7854 22.9785 18.291C24.4729 16.7966 25.3125 14.7697 25.3125 12.6562V12.6562Z" fill="white"/>
</svg>
